HIERARCHY
ROOT Root
{
  OFFSET 0.0 0.0 0.0
  CHANNELS 6 Xposition Yposition Zposition Zrotation Yrotation Xrotation
  JOINT Hips
  {
    OFFSET 0.0 100.0 0.0
    CHANNELS 6 Xposition Yposition Zposition Zrotation Yrotation Xrotation
    JOINT Spine1
    {
      OFFSET 5.003913 -0.037094 -0.013727
      CHANNELS 3 Zrotation Yrotation Xrotation
      JOINT Spine2
      {
        OFFSET 7.125363 -1e-06 0.0
        CHANNELS 3 Zrotation Yrotation Xrotation
        JOINT Chest
        {
          OFFSET 7.594027 1e-06 0.0
          CHANNELS 3 Zrotation Yrotation Xrotation
          JOINT Neck1
          {
            OFFSET 26.313086 -0.460272 -0.181672
            CHANNELS 3 Zrotation Yrotation Xrotation
            JOINT Neck2
            {
              OFFSET 8.045911 0.0 0.0
              CHANNELS 3 Zrotation Yrotation Xrotation
              JOINT Head
              {
                OFFSET 6.432774 0.0 0.0
                CHANNELS 3 Zrotation Yrotation Xrotation
                JOINT HeadEnd
                {
                  OFFSET 16.169773 0.06451 0.00362
                  CHANNELS 3 Zrotation Yrotation Xrotation
                }
                JOINT Jaw
                {
                  OFFSET 0.108741 3.12938 0.002639
                  CHANNELS 3 Zrotation Yrotation Xrotation
                }
                JOINT LeftEye
                {
                  OFFSET 4.45173 8.166359 3.206392
                  CHANNELS 3 Zrotation Yrotation Xrotation
                }
                JOINT RightEye
                {
                  OFFSET 4.436895 8.135758 -3.222429
                  CHANNELS 3 Zrotation Yrotation Xrotation
                }
              }
            }
          }
          JOINT LeftShoulder
          {
            OFFSET 23.218927 5.195579 1.621656
            CHANNELS 3 Zrotation Yrotation Xrotation
            JOINT LeftArm
            {
              OFFSET 15.902118 2e-06 -2e-06
              CHANNELS 3 Zrotation Yrotation Xrotation
              JOINT LeftForeArm
              {
                OFFSET 28.739307 0.0 -1e-06
                CHANNELS 3 Zrotation Yrotation Xrotation
                JOINT LeftHand
                {
                  OFFSET 27.093981 -4e-06 0.0
                  CHANNELS 3 Zrotation Yrotation Xrotation
                  JOINT LeftHandThumb1
                  {
                    OFFSET 2.276781 3.380274 0.83384
                    CHANNELS 3 Zrotation Yrotation Xrotation
                    JOINT LeftHandThumb2
                    {
                      OFFSET 4.705309 -1e-06 -1e-06
                      CHANNELS 3 Zrotation Yrotation Xrotation
                      JOINT LeftHandThumb3
                      {
                        OFFSET 2.798515 0.0 3e-06
                        CHANNELS 3 Zrotation Yrotation Xrotation
                        JOINT LeftHandThumbEnd
                        {
                          OFFSET 3.180793 4e-06 -4e-06
                          CHANNELS 3 Zrotation Yrotation Xrotation
                        }
                      }
                    }
                  }
                  JOINT LeftHandIndex1
                  {
                    OFFSET 3.247786 2.352677 0.137192
                    CHANNELS 3 Zrotation Yrotation Xrotation
                    JOINT LeftHandIndex2
                    {
                      OFFSET 6.367095 1e-06 0.0
                      CHANNELS 3 Zrotation Yrotation Xrotation
                      JOINT LeftHandIndex3
                      {
                        OFFSET 3.662364 0.0 0.0
                        CHANNELS 3 Zrotation Yrotation Xrotation
                        JOINT LeftHandIndex4
                        {
                          OFFSET 2.329242 4e-06 -4e-06
                          CHANNELS 3 Zrotation Yrotation Xrotation
                          JOINT LeftHandIndexEnd
                          {
                            OFFSET 2.767823 1e-06 0.0
                            CHANNELS 3 Zrotation Yrotation Xrotation
                          }
                        }
                      }
                    }
                  }
                  JOINT LeftHandMiddle1
                  {
                    OFFSET 3.163612 0.945023 -0.406112
                    CHANNELS 3 Zrotation Yrotation Xrotation
                    JOINT LeftHandMiddle2
                    {
                      OFFSET 6.276789 3e-06 0.0
                      CHANNELS 3 Zrotation Yrotation Xrotation
                      JOINT LeftHandMiddle3
                      {
                        OFFSET 4.35652 -1e-06 4e-06
                        CHANNELS 3 Zrotation Yrotation Xrotation
                        JOINT LeftHandMiddle4
                        {
                          OFFSET 2.996877 0.0 8e-06
                          CHANNELS 3 Zrotation Yrotation Xrotation
                          JOINT LeftHandMiddleEnd
                          {
                            OFFSET 2.323256 3e-06 -4e-06
                            CHANNELS 3 Zrotation Yrotation Xrotation
                          }
                        }
                      }
                    }
                  }
                  JOINT LeftHandRing1
                  {
                    OFFSET 2.882606 -0.309162 0.107445
                    CHANNELS 3 Zrotation Yrotation Xrotation
                    JOINT LeftHandRing2
                    {
                      OFFSET 6.033198 0.0 4e-06
                      CHANNELS 3 Zrotation Yrotation Xrotation
                      JOINT LeftHandRing3
                      {
                        OFFSET 4.350578 3e-06 0.0
                        CHANNELS 3 Zrotation Yrotation Xrotation
                        JOINT LeftHandRing4
                        {
                          OFFSET 2.651321 2e-06 -7e-06
                          CHANNELS 3 Zrotation Yrotation Xrotation
                          JOINT LeftHandRingEnd
                          {
                            OFFSET 1.937663 1e-06 -4e-06
                            CHANNELS 3 Zrotation Yrotation Xrotation
                          }
                        }
                      }
                    }
                  }
                  JOINT LeftHandPinky1
                  {
                    OFFSET 2.865315 -1.525436 0.575687
                    CHANNELS 3 Zrotation Yrotation Xrotation
                    JOINT LeftHandPinky2
                    {
                      OFFSET 5.54936 1e-06 -8e-06
                      CHANNELS 3 Zrotation Yrotation Xrotation
                      JOINT LeftHandPinky3
                      {
                        OFFSET 3.070974 0.0 -4e-06
                        CHANNELS 3 Zrotation Yrotation Xrotation
                        JOINT LeftHandPinky4
                        {
                          OFFSET 1.549672 1e-06 0.0
                          CHANNELS 3 Zrotation Yrotation Xrotation
                          JOINT LeftHandPinkyEnd
                          {
                            OFFSET 1.952123 0.0 0.0
                            CHANNELS 3 Zrotation Yrotation Xrotation
                          }
                        }
                      }
                    }
                  }
                }
              }
            }
          }
          JOINT RightShoulder
          {
            OFFSET 23.161716 5.296122 -1.380114
            CHANNELS 3 Zrotation Yrotation Xrotation
            JOINT RightArm
            {
              OFFSET -16.027195 -2e-06 1.1e-05
              CHANNELS 3 Zrotation Yrotation Xrotation
              JOINT RightForeArm
              {
                OFFSET -28.736639 4e-06 2e-06
                CHANNELS 3 Zrotation Yrotation Xrotation
                JOINT RightHand
                {
                  OFFSET -27.133619 6e-06 0.0
                  CHANNELS 3 Zrotation Yrotation Xrotation
                  JOINT RightHandThumb1
                  {
                    OFFSET -2.274328 -3.351035 -0.83067
                    CHANNELS 3 Zrotation Yrotation Xrotation
                    JOINT RightHandThumb2
                    {
                      OFFSET -4.703594 -3e-06 2e-06
                      CHANNELS 3 Zrotation Yrotation Xrotation
                      JOINT RightHandThumb3
                      {
                        OFFSET -2.794935 -4e-06 -3e-06
                        CHANNELS 3 Zrotation Yrotation Xrotation
                        JOINT RightHandThumbEnd
                        {
                          OFFSET -3.183852 4e-06 1e-06
                          CHANNELS 3 Zrotation Yrotation Xrotation
                        }
                      }
                    }
                  }
                  JOINT RightHandIndex1
                  {
                    OFFSET -3.253496 -2.33755 -0.127667
                    CHANNELS 3 Zrotation Yrotation Xrotation
                    JOINT RightHandIndex2
                    {
                      OFFSET -6.344434 0.0 0.0
                      CHANNELS 3 Zrotation Yrotation Xrotation
                      JOINT RightHandIndex3
                      {
                        OFFSET -3.654871 0.0 -8e-06
                        CHANNELS 3 Zrotation Yrotation Xrotation
                        JOINT RightHandIndex4
                        {
                          OFFSET -2.327586 -1e-06 0.0
                          CHANNELS 3 Zrotation Yrotation Xrotation
                          JOINT RightHandIndexEnd
                          {
                            OFFSET -2.770001 3e-06 8e-06
                            CHANNELS 3 Zrotation Yrotation Xrotation
                          }
                        }
                      }
                    }
                  }
                  JOINT RightHandMiddle1
                  {
                    OFFSET -3.168223 -0.944764 0.411762
                    CHANNELS 3 Zrotation Yrotation Xrotation
                    JOINT RightHandMiddle2
                    {
                      OFFSET -6.266691 -1e-06 -4e-06
                      CHANNELS 3 Zrotation Yrotation Xrotation
                      JOINT RightHandMiddle3
                      {
                        OFFSET -4.348901 0.0 0.0
                        CHANNELS 3 Zrotation Yrotation Xrotation
                        JOINT RightHandMiddle4
                        {
                          OFFSET -3.00024 2e-06 -4e-06
                          CHANNELS 3 Zrotation Yrotation Xrotation
                          JOINT RightHandMiddleEnd
                          {
                            OFFSET -2.321477 -4e-06 -4e-06
                            CHANNELS 3 Zrotation Yrotation Xrotation
                          }
                        }
                      }
                    }
                  }
                  JOINT RightHandRing1
                  {
                    OFFSET -2.885654 0.293261 -0.119232
                    CHANNELS 3 Zrotation Yrotation Xrotation
                    JOINT RightHandRing2
                    {
                      OFFSET -6.032835 -1e-06 -4e-06
                      CHANNELS 3 Zrotation Yrotation Xrotation
                      JOINT RightHandRing3
                      {
                        OFFSET -4.33881 0.0 -4e-06
                        CHANNELS 3 Zrotation Yrotation Xrotation
                        JOINT RightHandRing4
                        {
                          OFFSET -2.654903 -4e-06 -4e-06
                          CHANNELS 3 Zrotation Yrotation Xrotation
                          JOINT RightHandRingEnd
                          {
                            OFFSET -1.935122 0.0 4e-06
                            CHANNELS 3 Zrotation Yrotation Xrotation
                          }
                        }
                      }
                    }
                  }
                  JOINT RightHandPinky1
                  {
                    OFFSET -2.866241 1.503904 -0.60527
                    CHANNELS 3 Zrotation Yrotation Xrotation
                    JOINT RightHandPinky2
                    {
                      OFFSET -5.553177 -2e-06 0.0
                      CHANNELS 3 Zrotation Yrotation Xrotation
                      JOINT RightHandPinky3
                      {
                        OFFSET -3.062664 -1e-06 -4e-06
                        CHANNELS 3 Zrotation Yrotation Xrotation
                        JOINT RightHandPinky4
                        {
                          OFFSET -1.546529 2e-06 4e-06
                          CHANNELS 3 Zrotation Yrotation Xrotation
                          JOINT RightHandPinkyEnd
                          {
                            OFFSET -1.952341 0.0 -4e-06
                            CHANNELS 3 Zrotation Yrotation Xrotation
                          }
                        }
                      }
                    }
                  }
                }
              }
            }
          }
        }
      }
    }
    JOINT LeftLeg
    {
      OFFSET -8.443107 2.567604 10.043214
      CHANNELS 3 Zrotation Yrotation Xrotation
      JOINT LeftShin
      {
        OFFSET 43.229198 1e-06 -1e-06
        CHANNELS 3 Zrotation Yrotation Xrotation
        JOINT LeftFoot
        {
          OFFSET 42.298611 1e-06 1e-06
          CHANNELS 3 Zrotation Yrotation Xrotation
          JOINT LeftToeBase
          {
            OFFSET 14.165858 1e-06 0.0
            CHANNELS 3 Zrotation Yrotation Xrotation
            JOINT LeftToeEnd
            {
              OFFSET 6.7141 -0.234461 0.0
              CHANNELS 3 Zrotation Yrotation Xrotation
            }
          }
        }
      }
    }
    JOINT RightLeg
    {
      OFFSET -8.303923 2.592729 -10.047278
      CHANNELS 3 Zrotation Yrotation Xrotation
      JOINT RightShin
      {
        OFFSET -43.369682 0.0 1e-06
        CHANNELS 3 Zrotation Yrotation Xrotation
        JOINT RightFoot
        {
          OFFSET -42.260784 4e-06 2e-06
          CHANNELS 3 Zrotation Yrotation Xrotation
          JOINT RightToeBase
          {
            OFFSET -14.222245 -2e-06 -1e-06
            CHANNELS 3 Zrotation Yrotation Xrotation
            JOINT RightToeEnd
            {
              OFFSET -6.660062 0.232574 -2e-06
              CHANNELS 3 Zrotation Yrotation Xrotation
            }
          }
        }
      }
    }
  }
}
MOTION
Frames: 5
Frame Time: 0.03333333333333333
0.0 0.0 0.0 0.0 -0.0 0.0 4.287353 99.536369 2.216255 88.93042 -3.356636 76.968513 3.099563 -0.122899 -1.031252 -10.100699 -0.888031 -3.728378 13.631027 0.267723 -6.897982 19.052809 26.94787 0.301629 -2.201663 -0.942718 -17.340099 -36.228729 -0.546488 -22.640085 6e-06 -0.0 -0.0 -0.031739 -0.063927 0.122321 0.030022 -0.085411 0.09235 0.031288 -0.04157 0.128213 -78.550827 -81.428131 98.566971 16.926523 -76.275818 -20.629734 132.0578 -2.391407 -0.332911 11.997738 0.608177 23.361851 17.636629 -26.322737 52.411205 -19.466656 -14.395596 29.410395 -0.0 -8.774821 -3e-06 15.51508 -17.608385 6.129955 -0.609775 -1.795654 -3.889327 -4.807086 -11.046808 -2.937851 5e-06 -20.976015 0.0 -5.01997 -25.033548 -4.031876 8e-06 1e-06 1e-06 -10.634531 -5.686969 -3.565589 10.573272 -17.922951 -3.1139 3e-06 -13.821206 2e-06 -0.501777 -31.181505 -4.027012 -11.500704 -58.570457 7.502721 -13.982713 -7.150195 -2.875042 13.772731 -8.401492 -3.218245 0.347734 -34.211555 0.771658 -0.963028 -17.73337 2.621023 0.0 -1e-06 -0.0 -17.346413 -20.095213 -4.201785 21.757555 -1.638377 3.866427 3e-06 -6.338826 1e-06 -1.697587 -22.591742 -6.194004 1e-06 -4e-06 -3e-06 63.180515 -72.058205 140.362137 -21.387959 -44.468719 61.780613 35.97488 -0.439518 -0.373233 12.981059 -26.447887 27.946569 22.182119 -20.375895 49.933319 -16.701807 -16.743528 28.476524 -3e-06 -12.690598 -3e-06 17.269831 -18.18136 2.065258 -0.10592 -1.513855 -4.27588 -5.039041 -5.61287 -2.953557 4e-06 -11.020525 -2e-06 -6.111295 -15.89533 -3.840471 -0.0 -0.0 -0.0 -10.283371 -5.680286 -4.341838 11.028294 -11.302404 -2.372632 -1.384269 -14.238579 -6.32012 -0.625436 -26.924187 -3.827598 -3.715852 -47.315643 -4.596616 -13.708525 -7.363472 -3.720938 18.141146 -14.052739 -3.242672 6e-06 -18.787264 -1e-06 -0.429711 -8.456043 2.555504 1e-06 -0.0 -0.0 -15.923532 -20.094477 -5.473587 30.41921 -7.190828 1.735927 3e-06 -8.162922 -0.0 -1.861902 -22.861464 -6.16794 -0.0 -3e-06 -1e-06 -178.192078 -4.955211 -4.194097 12.609708 -0.062722 0.082059 -84.882248 -3.753605 -6.849057 -5.339187 1.624884 2.199539 -0.999999 -0.0 -0.0 -11.951077 -0.216165 1.252914 28.905357 -0.151479 0.110079 -80.993484 3.511323 -1.347914 -7.645133 0.850243 1.694543 -1.000003 1e-06 0.0 
0.0 0.0 0.0 0.0 -0.0 0.0 4.414136 99.538269 2.056256 89.122017 -3.69571 75.462761 3.257125 -0.087372 -1.108077 -10.055082 -0.851326 -3.890722 13.752862 0.401984 -7.070391 18.183977 28.578405 -0.078851 -2.155435 -0.889981 -18.521782 -37.458118 -1.101785 -24.465313 6e-06 -0.0 -0.0 -0.023497 -0.059942 0.138433 -0.001559 -0.108774 0.105288 -0.000167 -0.010796 0.148376 -73.218071 -81.80854 93.351021 14.947342 -76.928253 -19.485149 131.697891 -2.316126 -0.383968 11.811084 0.758848 23.602036 17.636627 -26.322739 52.411201 -19.466665 -14.3956 29.410395 -1e-06 -8.774822 -2e-06 15.641479 -17.596287 6.027929 -0.609777 -1.795654 -3.889329 -4.807089 -11.046813 -2.937849 4e-06 -20.976021 0.0 -5.01997 -25.03356 -4.031878 7e-06 2e-06 -1e-06 -10.634535 -5.686971 -3.565588 10.573275 -17.922955 -3.113903 3e-06 -13.821211 1e-06 -0.501776 -31.181511 -4.027015 -11.44317 -58.666092 7.416506 -13.982715 -7.150195 -2.875042 13.772731 -8.401497 -3.218242 0.347737 -34.211555 0.771655 -0.963028 -17.733372 2.621022 -0.0 -1e-06 -2e-06 -17.346413 -20.095217 -4.20178 21.757557 -1.638377 3.866426 1e-06 -6.338823 0.0 -1.697586 -22.591749 -6.194008 -0.0 -3e-06 -3e-06 63.408157 -72.63694 139.706665 -21.174536 -44.180523 60.19458 35.495884 -0.051401 -0.42961 11.998346 -26.335958 26.55541 22.182117 -20.375898 49.933323 -16.701817 -16.74353 28.476534 -3e-06 -12.6906 0.0 17.139059 -18.423494 2.250898 -0.105921 -1.513858 -4.275883 -5.039041 -5.61287 -2.953555 4e-06 -11.020525 -2e-06 -6.111298 -15.895334 -3.84047 -0.0 -0.0 0.0 -10.283372 -5.680287 -4.341838 11.028296 -11.302407 -2.372632 -1.384269 -14.238581 -6.320122 -0.625439 -26.924191 -3.827601 -3.847968 -47.828362 -4.569024 -13.708527 -7.363479 -3.720938 18.141151 -14.052739 -3.242675 6e-06 -18.78727 -3e-06 -0.429712 -8.456045 2.555503 1e-06 -0.0 0.0 -15.923536 -20.094482 -5.473585 30.419218 -7.190827 1.735923 1e-06 -8.162924 -1e-06 -1.861902 -22.861473 -6.167943 0.0 -3e-06 -1e-06 -178.514603 -4.75521 -5.295365 12.779351 -0.046557 0.091764 -84.958633 -3.934883 -6.976536 -5.423734 1.63139 2.191394 -0.999999 -0.0 0.0 -12.720436 -0.231233 1.856932 28.998466 -0.147483 0.148492 -80.865601 4.213561 -1.069034 -7.548851 0.84598 1.690152 -1.000002 -0.0 0.0 
0.0 0.0 0.0 0.0 -0.0 0.0 4.533482 99.538322 1.88673 89.299904 -3.977286 74.288124 3.42115 -0.036365 -1.180639 -10.008839 -0.806522 -3.98908 13.851097 0.4842 -7.186648 17.331224 29.80488 -0.372874 -2.100912 -0.873338 -19.541227 -38.577808 -1.674371 -26.112972 6e-06 -1e-06 0.0 -0.020285 -0.053161 0.150478 -0.051818 -0.12205 0.113303 -0.062797 0.016289 0.165438 -68.387863 -82.061501 88.580215 13.373411 -77.329987 -18.339163 131.480347 -2.231741 -0.439349 11.794502 0.63253 23.70293 17.636616 -26.322723 52.411194 -19.466658 -14.395594 29.410381 -1e-06 -8.774819 -1e-06 15.668198 -17.580502 5.986172 -0.609776 -1.795653 -3.889326 -4.807085 -11.046807 -2.937852 5e-06 -20.976015 -0.0 -5.019966 -25.033548 -4.031879 5e-06 1e-06 -2e-06 -10.634529 -5.686967 -3.565588 10.573269 -17.922947 -3.113903 3e-06 -13.821203 0.0 -0.501775 -31.181498 -4.027015 -11.424305 -58.634014 7.392152 -13.982711 -7.150195 -2.875043 13.772724 -8.40149 -3.218241 0.347735 -34.211536 0.771655 -0.963026 -17.733366 2.621019 -0.0 -1e-06 -2e-06 -17.346413 -20.095211 -4.201782 21.757555 -1.638375 3.866428 1e-06 -6.338822 -1e-06 -1.697588 -22.591738 -6.194006 -0.0 -4e-06 -2e-06 63.905853 -73.191719 138.821823 -20.739679 -44.229366 59.083164 35.625576 0.184358 -0.368879 11.571968 -26.105467 25.501303 22.182114 -20.375891 49.933308 -16.701809 -16.743526 28.476519 -2e-06 -12.690594 0.0 17.148712 -18.653824 2.409015 -0.105919 -1.513855 -4.27588 -5.039039 -5.61287 -2.953554 5e-06 -11.020524 -2e-06 -6.111295 -15.89533 -3.84047 1e-06 -1e-06 1e-06 -10.283367 -5.680285 -4.341836 11.028292 -11.302401 -2.372633 -1.384267 -14.238576 -6.32012 -0.625441 -26.924183 -3.827598 -3.994947 -48.269951 -4.487755 -13.708521 -7.36347 -3.72094 18.141146 -14.052738 -3.242674 7e-06 -18.787266 0.0 -0.429711 -8.456041 2.555504 1e-06 0.0 -0.0 -15.923531 -20.094475 -5.473582 30.41921 -7.19083 1.735923 2e-06 -8.162921 -1e-06 -1.861902 -22.861464 -6.167938 0.0 -3e-06 -1e-06 -178.882828 -4.592096 -6.170356 13.011042 -0.034625 0.09465 -85.046371 -4.052351 -7.018299 -5.427517 1.609413 2.176582 -0.999999 0.0 0.0 -13.397926 -0.258549 2.228429 29.103849 -0.146567 0.174488 -80.742294 4.863354 -0.87377 -7.386487 0.839036 1.686724 -1.000001 0.0 -0.0 
0.0 0.0 0.0 0.0 -0.0 0.0 4.6221 99.524841 1.708921 89.468178 -4.170514 73.43573 3.595023 0.001167 -1.246724 -9.950281 -0.7741 -4.047641 13.933443 0.52891 -7.253859 16.509954 30.670935 -0.559695 -2.051279 -0.906609 -20.412233 -39.583813 -2.294244 -27.596001 6e-06 -1e-06 0.0 -0.022633 -0.046536 0.163197 -0.11854 -0.126007 0.122228 -0.145572 0.034007 0.183128 -64.61422 -82.241295 84.815964 12.417272 -77.513123 -17.510227 131.349426 -2.120444 -0.51069 11.824685 0.42189 23.771807 17.636627 -26.322725 52.411186 -19.466665 -14.395598 29.410393 -0.0 -8.774822 -1e-06 15.65148 -17.575094 5.980132 -0.609775 -1.795654 -3.889328 -4.807087 -11.046809 -2.937851 6e-06 -20.976015 -2e-06 -5.019968 -25.033548 -4.031878 5e-06 0.0 -2e-06 -10.634533 -5.686968 -3.565587 10.573276 -17.922953 -3.113904 4e-06 -13.821208 -1e-06 -0.501773 -31.181507 -4.027017 -11.420057 -58.559113 7.408195 -13.982713 -7.150196 -2.875043 13.772731 -8.401493 -3.218243 0.34774 -34.211555 0.77165 -0.963025 -17.73337 2.62102 -0.0 -0.0 -1e-06 -17.346415 -20.095213 -4.201785 21.757557 -1.63838 3.866427 2e-06 -6.338822 -3e-06 -1.697586 -22.591745 -6.194007 2e-06 -4e-06 -3e-06 64.364258 -73.666565 137.996765 -20.208389 -44.528198 58.235233 36.150566 0.258279 -0.306335 11.420092 -25.638834 24.991898 22.182114 -20.375898 49.933327 -16.701818 -16.74353 28.476536 -4e-06 -12.690599 -1e-06 17.22571 -18.840445 2.521641 -0.10592 -1.513856 -4.275883 -5.039041 -5.612872 -2.953556 5e-06 -11.020527 -3e-06 -6.111297 -15.895334 -3.840473 -1e-06 0.0 -0.0 -10.283369 -5.680288 -4.341839 11.028293 -11.302402 -2.372634 -1.384269 -14.238583 -6.320122 -0.625435 -26.924191 -3.827603 -4.091061 -48.55867 -4.432738 -13.708524 -7.363476 -3.72094 18.141153 -14.052739 -3.242678 7e-06 -18.78727 -2e-06 -0.429712 -8.456044 2.555504 -0.0 0.0 0.0 -15.923534 -20.094484 -5.473585 30.419218 -7.190824 1.735923 3e-06 -8.162925 -1e-06 -1.861904 -22.861469 -6.167942 0.0 -3e-06 -0.0 -179.263641 -4.460811 -6.840842 13.32679 -0.02807 0.096531 -85.168556 -4.126145 -7.058363 -5.35459 1.575554 2.162761 -0.999999 -0.0 -0.0 -13.931347 -0.302763 2.457564 29.192301 -0.148585 0.184413 -80.712631 5.379403 -0.760493 -7.150518 0.829619 1.687129 -1.000001 -0.0 0.0 
0.0 0.0 0.0 0.0 -0.0 0.0 4.677254 99.506775 1.533044 89.635704 -4.298802 72.859795 3.736931 0.014824 -1.284186 -9.889067 -0.760404 -4.091433 14.012641 0.542292 -7.284936 15.761283 31.253731 -0.677316 -2.012899 -0.99057 -21.101505 -40.467712 -2.921093 -28.79635 6e-06 1e-06 -0.0 -0.026186 -0.044064 0.182591 -0.174687 -0.12986 0.140757 -0.215639 0.04315 0.204739 -62.287201 -82.420547 82.446678 12.362201 -77.536354 -17.47613 131.164749 -2.004289 -0.581626 11.848412 0.305827 23.818508 17.636616 -26.322721 52.411182 -19.466663 -14.395594 29.410389 -0.0 -8.774819 -1e-06 15.635364 -17.56074 5.970023 -0.609774 -1.795655 -3.889326 -4.807086 -11.046808 -2.93785 6e-06 -20.976015 -4e-06 -5.019968 -25.033552 -4.03188 6e-06 -0.0 1e-06 -10.634531 -5.686971 -3.565585 10.573275 -17.922951 -3.113902 3e-06 -13.821203 -0.0 -0.501776 -31.181498 -4.027014 -11.423258 -58.494396 7.422654 -13.982706 -7.150196 -2.87504 13.772726 -8.40149 -3.218242 0.347734 -34.211544 0.771652 -0.963028 -17.733368 2.621021 1e-06 -0.0 -1e-06 -17.346409 -20.095213 -4.201782 21.757553 -1.638375 3.866426 1e-06 -6.338821 -1e-06 -1.697589 -22.591742 -6.194005 1e-06 -4e-06 -3e-06 64.562485 -74.005898 137.47879 -19.596571 -44.910488 57.346294 36.916378 0.26406 -0.298872 11.349162 -24.792303 24.691572 22.182121 -20.375895 49.933319 -16.701809 -16.743528 28.476528 -1e-06 -12.6906 -2e-06 17.253153 -18.918236 2.594412 -0.10592 -1.513855 -4.275882 -5.03904 -5.612871 -2.953556 4e-06 -11.020521 -3e-06 -6.111297 -15.895336 -3.84047 0.0 1e-06 1e-06 -10.283371 -5.680286 -4.34184 11.028296 -11.302406 -2.372633 -1.384268 -14.238583 -6.320121 -0.62544 -26.924191 -3.827601 -4.143917 -48.696266 -4.394591 -13.708526 -7.363476 -3.720942 18.14115 -14.052741 -3.242674 7e-06 -18.78727 -2e-06 -0.42971 -8.456044 2.555504 -0.0 0.0 0.0 -15.923536 -20.094482 -5.473586 30.41921 -7.190826 1.735927 3e-06 -8.162927 -1e-06 -1.861903 -22.861471 -6.167942 0.0 -4e-06 -1e-06 -179.625534 -4.350038 -7.339426 13.647548 -0.020799 0.090903 -85.272629 -4.136667 -7.134744 -5.317729 1.548559 2.151205 -0.999999 -0.0 0.0 -14.374027 -0.45876 2.579116 29.199253 -0.152941 0.199579 -80.726028 5.76408 -0.791085 -6.886005 0.824895 1.691821 -1.000002 0.0 0.0 
